<?xml version="1.0" ?><svg id="Icons_FamilyWithBoy" overflow="hidden" version="1.1" viewBox="0 0 96 96" xmlns="http://www.w3.org/2000/svg" xmlns:xlink="http://www.w3.org/1999/xlink"><g><circle cx="23" cy="15" r="7"/><circle cx="53" cy="15" r="7"/><circle cx="80" cy="56" r="5"/><path d=" M 90.8 74.2 L 87.3 65.8 C 86.1 64.1 84.2 62.8 82.1 62.2 C 81.5 62.1 80.7 62 80 62 L 75 62 L 70.8 54.9 C 70.9 54.4 71 53.9 70.9 53.4 L 66.2 29.8 C 64.3 27.7 61.9 26.1 59.1 25.1 C 57.2 24.4 55.1 24 52.9 24 C 50.7 24 48.7 24.4 46.7 25.1 C 44 26.1 41.6 27.7 39.6 29.8 L 38 38.7 L 36.2 29.8 C 34.3 27.7 31.9 26.1 29.1 25.1 C 27.2 24.4 25.1 24 22.9 24 C 20.7 24 18.7 24.4 16.7 25.1 C 14 26.1 11.6 27.7 9.6 29.8 L 5.1 53.4 C 4.8 55 5.8 56.6 7.5 56.9 C 7.6 57 7.8 57 8 57 C 9.4 57 10.7 56 10.9 54.6 L 15 34.3 L 15 88 L 21 88 L 21 57 L 25 57 L 25 88 L 31 88 L 31 34.3 L 35.1 54.6 C 35.3 56 36.6 57 38 57 L 38 57 C 39.4 57 40.7 56 40.9 54.6 L 45 34.3 L 45 45.2 L 41.2 64.1 L 45 64.1 L 45 88 L 51 88 L 51 64 L 55 64 L 55 88 L 61 88 L 61 64.1 L 64.8 64.1 L 61 45.2 L 61 34.3 L 65.1 54.6 C 65.3 55.8 66.3 56.7 67.4 56.9 L 75 69.8 L 75 88 L 79 88 L 79 76 L 81 76 L 81 88 L 85 88 L 85 70.6 L 87.2 75.8 C 87.5 76.6 88.3 77 89 77 C 89.3 77 89.5 77 89.8 76.8 C 90.8 76.4 91.3 75.2 90.8 74.2 Z"/></g></svg>